<svg width="48" height="48" viewBox="0 0 48 48" fill="none" xmlns="http://www.w3.org/2000/svg">
<g clip-path="url(#clip0_31_67)">
<path d="M11.7908 14.4283C5.30139 14.4283 0.0218506 19.7079 0.0218506 26.1973C0.0218506 30.2264 1.93848 34.5584 5.71858 39.073C6.28024 39.7438 6.83993 40.3654 7.37702 40.9325C4.93633 41.5986 3.47092 42.7956 3.47092 44.1925C3.47092 46.6656 7.75737 48 11.7904 48C15.8235 48 20.1099 46.6655 20.1099 44.1925C20.1099 42.7967 18.6449 41.5995 16.2059 40.933C17.1803 39.9043 18.2288 38.694 19.2237 37.344C19.4543 37.031 19.3875 36.5904 19.0746 36.3598C18.7619 36.1295 18.321 36.196 18.0904 36.509C16.8893 38.139 15.5892 39.5715 14.4547 40.7093C14.3247 40.7757 14.2159 40.8811 14.1478 41.0139C13.1315 42.0126 12.2763 42.7536 11.7911 43.1584C11.3112 42.7575 10.469 42.0266 9.46578 41.0409C9.39378 40.8831 9.26731 40.7594 9.11299 40.6904C5.92483 37.4837 1.42951 31.9434 1.42951 26.1975C1.42951 20.4843 6.07755 15.8363 11.7907 15.8363C17.5038 15.8363 22.1519 20.4843 22.1519 26.1975C22.1519 28.6924 21.3017 31.3868 19.6251 34.2058C19.4265 34.54 19.5361 34.9719 19.8703 35.1706C20.2044 35.3692 20.6364 35.2595 20.835 34.9254C22.6429 31.8857 23.5596 28.9492 23.5596 26.1975C23.5597 19.7079 18.2802 14.4283 11.7908 14.4283ZM11.36 44.6224C11.4867 44.7205 11.6388 44.7696 11.7908 44.7696C11.9427 44.7696 12.0947 44.7205 12.2216 44.6224C12.3079 44.5555 13.4841 43.6383 15.0519 42.1054C17.4258 42.5895 18.7023 43.5217 18.7023 44.1926C18.7023 44.6937 18.0155 45.2849 16.9099 45.7354C15.5539 46.288 13.7358 46.5924 11.7905 46.5924C7.57118 46.5924 4.87867 45.171 4.87867 44.1926C4.87867 43.5207 6.15555 42.589 8.5308 42.1049C10.1073 43.6469 11.2852 44.5644 11.36 44.6224Z" fill="white"/>
<path d="M11.7907 21.0801C10.6775 21.0801 9.61884 21.4315 8.72933 22.0965C8.41808 22.3293 8.35433 22.7704 8.58702 23.0817C8.8199 23.393 9.26099 23.4566 9.57224 23.2241C10.2164 22.7425 10.9836 22.4878 11.7907 22.4878C13.836 22.4878 15.5 24.1518 15.5 26.1972C15.5 28.2426 13.836 29.9066 11.7907 29.9066C9.7453 29.9066 8.08133 28.2425 8.08133 26.1972C8.08133 25.8482 8.12961 25.5031 8.22477 25.1718C8.33202 24.7982 8.11611 24.4084 7.74252 24.3011C7.36902 24.1942 6.97911 24.4098 6.87177 24.7834C6.74042 25.2412 6.67377 25.7168 6.67377 26.1972C6.67377 29.0188 8.96924 31.3143 11.7908 31.3143C14.6123 31.3143 16.9079 29.0188 16.9079 26.1972C16.9078 23.3756 14.6123 21.0801 11.7907 21.0801Z" fill="white"/>
<path d="M42.4649 20.4489C42.823 20.0646 43.1919 19.6506 43.5619 19.2087C46.4923 15.7087 47.9781 12.3441 47.9781 9.20805C47.9781 4.13082 43.8474 0 38.7701 0C35.0611 0 31.7308 2.20744 30.286 5.6237C30.1345 5.98173 30.302 6.39479 30.66 6.54611C31.0179 6.69742 31.431 6.53007 31.5824 6.17214C32.8066 3.27788 35.6279 1.40766 38.7701 1.40766C43.0713 1.40766 46.5705 4.90698 46.5705 9.20814C46.5705 15.0247 40.4638 20.5973 38.7698 22.0308C38.3965 21.7154 37.8089 21.199 37.1199 20.5236C37.0512 20.3874 36.9402 20.2794 36.8069 20.2125C34.3766 17.7656 30.9697 13.5593 30.9697 9.20814C30.9697 8.81936 30.6547 8.50427 30.2658 8.50427C29.8771 8.50427 29.562 8.81936 29.562 9.20814C29.562 12.3441 31.0478 15.7087 33.9783 19.2088C34.3482 19.6504 34.7168 20.0642 35.0747 20.4484C33.2603 20.9936 32.2128 21.9215 32.2128 23.0389C32.2128 23.9813 32.9773 24.8118 34.3655 25.3774C35.5533 25.8615 37.1176 26.1281 38.77 26.1281C40.4223 26.1281 41.9866 25.8615 43.1745 25.3774C44.5624 24.8117 45.3269 23.9812 45.3269 23.0388C45.3268 21.9235 44.2786 20.9947 42.4649 20.4489ZM38.7699 24.7202C35.4381 24.7202 33.6206 23.6095 33.6206 23.0387C33.6206 22.6669 34.4474 21.9865 36.2129 21.6111C37.4008 22.767 38.2825 23.4538 38.3394 23.4979C38.4662 23.5961 38.6182 23.6451 38.7702 23.6451C38.9222 23.6451 39.074 23.5961 39.201 23.4979C39.2579 23.454 40.1394 22.767 41.3273 21.6113C42.1139 21.779 42.7953 22.0247 43.2721 22.315C43.6774 22.5619 43.9193 22.8325 43.9193 23.0387C43.9191 23.6095 42.1016 24.7202 38.7699 24.7202Z" fill="white"/>
<path d="M38.7701 5.11237C36.5118 5.11237 34.6744 6.94968 34.6744 9.20822C34.6744 11.4666 36.5117 13.3039 38.7701 13.3039C41.0286 13.3039 42.8659 11.4667 42.8659 9.20822C42.8659 6.94978 41.0286 5.11237 38.7701 5.11237ZM38.7702 11.8961C37.2879 11.8961 36.0821 10.6903 36.0821 9.20812C36.0821 7.72593 37.2879 6.52002 38.7702 6.52002C40.2524 6.52002 41.4583 7.72584 41.4583 9.20812C41.4582 10.6903 40.2524 11.8961 38.7702 11.8961Z" fill="white"/>
<path d="M29.6398 22.335H29.3184C29.0844 22.335 28.8493 22.3504 28.6192 22.3811C28.234 22.4324 27.9631 22.7862 28.0143 23.1717C28.0615 23.5256 28.3637 23.7828 28.7112 23.7828C28.7421 23.7828 28.7734 23.7809 28.8049 23.7767C28.9736 23.7542 29.1464 23.7429 29.3185 23.7429H29.6398V23.7428C30.0286 23.7428 30.3436 23.4278 30.3436 23.0389C30.3436 22.6501 30.0286 22.335 29.6398 22.335Z" fill="white"/>
<path d="M27.3128 43.4528C27.3117 43.4528 27.3106 43.4528 27.3095 43.4528L26.3799 43.457C25.9912 43.4588 25.6775 43.7754 25.6792 44.1641C25.6809 44.5518 25.9958 44.8648 26.383 44.8648C26.3841 44.8648 26.3851 44.8648 26.3863 44.8648L27.3159 44.8606C27.7046 44.8588 28.0183 44.5422 28.0166 44.1535C28.0149 43.7658 27.7001 43.4528 27.3128 43.4528Z" fill="white"/>
<path d="M30.475 31.4521H29.5454C29.1566 31.4521 28.8415 31.7673 28.8415 32.156C28.8415 32.5448 29.1565 32.8599 29.5454 32.8599H30.475C30.8638 32.8599 31.1789 32.5449 31.1789 32.156C31.1789 31.7673 30.8639 31.4521 30.475 31.4521Z" fill="white"/>
<path d="M26.7454 23.7691C26.4819 23.4835 26.0367 23.4655 25.7508 23.7289C25.4884 23.9709 25.2497 24.2406 25.0414 24.5307C24.8146 24.8465 24.8868 25.2863 25.2025 25.5131C25.3268 25.6023 25.4704 25.6453 25.6126 25.6453C25.8315 25.6453 26.0473 25.5434 26.1849 25.3519C26.3377 25.1392 26.5128 24.9412 26.7053 24.7637C26.991 24.5001 27.0089 24.0548 26.7454 23.7691Z" fill="white"/>
<path d="M31.0315 43.4358C31.0304 43.4358 31.0294 43.4358 31.0282 43.4358L30.0987 43.44C29.71 43.4417 29.3963 43.7584 29.398 44.1471C29.3997 44.5347 29.7146 44.8478 30.1018 44.8478C30.1029 44.8478 30.104 44.8478 30.1051 44.8478L31.0346 44.8435C31.4233 44.8419 31.737 44.5252 31.7353 44.1365C31.7335 43.7488 31.4187 43.4358 31.0315 43.4358Z" fill="white"/>
<path d="M23.5942 43.4696C23.5931 43.4696 23.592 43.4696 23.5909 43.4696L22.6613 43.4738C22.2726 43.4756 21.9589 43.7922 21.9606 44.1809C21.9624 44.5685 22.277 44.8816 22.6644 44.8816C22.6655 44.8816 22.6665 44.8816 22.6676 44.8816L23.5973 44.8774C23.986 44.8756 24.2996 44.559 24.298 44.1703C24.2963 43.7825 23.9815 43.4696 23.5942 43.4696Z" fill="white"/>
<path d="M27.2653 30.8605C27.0441 30.721 26.8361 30.5581 26.6472 30.3765C26.367 30.1069 25.9213 30.1158 25.6519 30.3958C25.3824 30.6759 25.3911 31.1215 25.6712 31.3909C25.9289 31.6387 26.2125 31.8608 26.5141 32.0511C26.6308 32.1247 26.7606 32.1598 26.8891 32.1598C27.1227 32.1598 27.3511 32.0436 27.4851 31.8313C27.6926 31.5026 27.5941 31.0679 27.2653 30.8605Z" fill="white"/>
<path d="M25.535 28.3394C25.4878 28.0968 25.4638 27.8473 25.4638 27.5975L25.464 27.5584C25.4686 27.1697 25.1571 26.851 24.7683 26.8465C24.7656 26.8464 24.7628 26.8464 24.76 26.8464C24.3751 26.8464 24.0608 27.1561 24.0563 27.5421L24.056 27.5976C24.056 27.9375 24.0888 28.2778 24.1533 28.6088C24.2187 28.9449 24.5133 29.178 24.8433 29.178C24.8879 29.178 24.9333 29.1738 24.9786 29.1649C25.3603 29.0906 25.6093 28.721 25.535 28.3394Z" fill="white"/>
<path d="M34.1938 31.4521H33.2642C32.8754 31.4521 32.5603 31.7673 32.5603 32.156C32.5603 32.5448 32.8754 32.8599 33.2642 32.8599H34.1938C34.5826 32.8599 34.8977 32.5449 34.8977 32.156C34.8977 31.7673 34.5826 31.4521 34.1938 31.4521Z" fill="white"/>
<path d="M45.4945 32.8852C45.2233 32.6712 44.9334 32.4767 44.6327 32.3075C44.2944 32.1166 43.8649 32.2366 43.6741 32.5753C43.4833 32.9139 43.6031 33.3433 43.9418 33.534C44.179 33.6677 44.4079 33.8211 44.622 33.9902C44.7513 34.0922 44.9049 34.1417 45.0577 34.1417C45.2657 34.1417 45.4717 34.0498 45.6107 33.8739C45.8516 33.5687 45.7997 33.1261 45.4945 32.8852Z" fill="white"/>
<path d="M42.8818 43.9401C42.8283 43.5551 42.4725 43.2856 42.0882 43.3392C41.8577 43.3711 41.6216 43.3879 41.3862 43.3888L41.2545 43.3894C40.8657 43.3914 40.5521 43.7081 40.554 44.0967C40.5559 44.4843 40.8707 44.7972 41.2577 44.7972C41.259 44.7972 41.2601 44.7972 41.2612 44.7972L41.3927 44.7965C41.6899 44.7952 41.9888 44.7741 42.2808 44.7337C42.6661 44.6805 42.935 44.3251 42.8818 43.9401Z" fill="white"/>
<path d="M45.9882 41.9608C45.72 41.6792 45.2744 41.6684 44.9932 41.9366C44.7956 42.1248 44.5819 42.299 44.3577 42.4544C44.0383 42.6758 43.9589 43.1144 44.1803 43.434C44.317 43.6312 44.5363 43.7369 44.7594 43.7369C44.8977 43.7369 45.0374 43.6962 45.1598 43.6115C45.4434 43.4147 45.7141 43.1942 45.9641 42.956C46.2457 42.6877 46.2564 42.2421 45.9882 41.9608Z" fill="white"/>
<path d="M47.3581 38.5424C46.9766 38.4705 46.6082 38.7217 46.5362 39.1037C46.4856 39.3716 46.4138 39.6374 46.3224 39.8939C46.1919 40.26 46.3829 40.6626 46.7491 40.7932C46.8272 40.8211 46.907 40.8343 46.9855 40.8343C47.2746 40.8343 47.5458 40.6547 47.6485 40.3667C47.7645 40.0413 47.8557 39.7041 47.9197 39.3643C47.9915 38.9822 47.74 38.6142 47.3581 38.5424Z" fill="white"/>
<path d="M47.7762 36.2798C47.6808 35.9475 47.5584 35.6201 47.4119 35.3063C47.2475 34.954 46.829 34.8018 46.4764 34.966C46.1242 35.1305 45.9718 35.5492 46.1362 35.9016C46.2515 36.1486 46.348 36.4066 46.4231 36.6682C46.5117 36.9769 46.7934 37.1781 47.0994 37.1781C47.1638 37.1781 47.229 37.1692 47.2939 37.1506C47.6675 37.0433 47.8834 36.6534 47.7762 36.2798Z" fill="white"/>
<path d="M37.9125 31.4521H36.9829C36.5941 31.4521 36.279 31.7673 36.279 32.156C36.279 32.5448 36.594 32.8599 36.9829 32.8599H37.9125C38.3013 32.8599 38.6164 32.5449 38.6164 32.156C38.6164 31.7673 38.3013 31.4521 37.9125 31.4521Z" fill="white"/>
<path d="M34.7502 43.4189C34.7491 43.4189 34.748 43.4189 34.7469 43.4189L33.8173 43.4231C33.4286 43.4248 33.1149 43.7415 33.1166 44.1302C33.1184 44.5178 33.4332 44.8309 33.8204 44.8309C33.8215 44.8309 33.8225 44.8309 33.8236 44.8309L34.7533 44.8266C35.142 44.8249 35.4556 44.5083 35.454 44.1196C35.4523 43.7319 35.1374 43.4189 34.7502 43.4189Z" fill="white"/>
<path d="M41.6621 31.4589C41.5625 31.4544 41.4617 31.4523 41.3625 31.4523H40.7014C40.3127 31.4523 39.9976 31.7675 39.9976 32.1561C39.9976 32.5449 40.3126 32.86 40.7014 32.86H41.3625V32.8599C41.4421 32.8599 41.5212 32.8617 41.5998 32.8652C41.6104 32.8657 41.621 32.8659 41.6315 32.8659C42.0059 32.8659 42.3175 32.571 42.3341 32.1933C42.3512 31.8048 42.0504 31.4761 41.6621 31.4589Z" fill="white"/>
<path d="M38.4688 43.4021C38.4677 43.4021 38.4667 43.4021 38.4655 43.4021L37.5359 43.4063C37.1472 43.408 36.8335 43.7247 36.8352 44.1134C36.837 44.501 37.1518 44.8141 37.539 44.8141C37.5401 44.8141 37.5412 44.8141 37.5423 44.8141L38.4719 44.8099C38.8606 44.8081 39.1743 44.4915 39.1726 44.1028C39.1709 43.715 38.8561 43.4021 38.4688 43.4021Z" fill="white"/>
</g>
<defs>
<clipPath id="clip0_31_67">
<rect width="48" height="48" fill="white"/>
</clipPath>
</defs>
</svg>
