<svg width="48" height="48" viewBox="0 0 48 48" fill="none" xmlns="http://www.w3.org/2000/svg">
<g id="Page-1">
<g id="028---Treasure-Map">
<path id="Shape" d="M1.0992 46.676C1.81767 47.4184 2.78091 47.8751 3.8104 47.9616C3.87169 47.9825 3.93541 47.9954 4 48H35.2C35.443 48.0001 35.6729 47.8897 35.8248 47.7L38.4 44.48L40.9752 47.6992C41.1269 47.8892 41.3568 47.9999 41.6 48H46.4C47.2837 48 48 47.2837 48 46.4V20C48 19.1164 47.2837 18.4 46.4 18.4H42.172C43.6312 15.7325 44.4011 12.7429 44.412 9.70242C44.412 6.27267 42.5823 3.10345 39.612 1.38857C36.6418 -0.326302 32.9823 -0.326302 30.012 1.38857C27.0418 3.10345 25.212 6.27267 25.212 9.70242C25.2242 12.7433 25.9959 15.733 27.4568 18.4H26.4C26.1482 18.4 25.9111 18.5186 25.76 18.72L24 21.0664L22.24 18.72C22.0889 18.5186 21.8518 18.4 21.6 18.4H12V16.8C12 15.9164 11.2837 15.2 10.4 15.2H4C2.93881 15.199 1.92078 15.62 1.1704 16.3704C0.420025 17.1208 -0.00106078 18.1388 2.0069e-06 19.2V44C0.00454168 44.0354 0.0114912 44.0704 0.020802 44.1048C0.0479725 45.0662 0.432461 45.9829 1.0992 46.676ZM27.5256 6.37122C29.0809 2.93104 32.8295 1.04642 36.5183 1.85013C40.2072 2.65383 42.832 5.92706 42.8152 9.70242C42.7893 12.9158 41.8541 16.0561 40.1176 18.76C40.072 18.84 40.0224 18.9136 39.9728 18.988L39.92 19.068C38.5337 21.1825 36.8091 23.0547 34.8152 24.6096C32.8192 23.0531 31.093 21.1787 29.7056 19.0616L29.6568 18.9896C29.6072 18.9152 29.5576 18.8416 29.4968 18.7384C27.7685 16.0402 26.8385 12.9082 26.8144 9.70402C26.8099 8.55495 27.0524 7.41834 27.5256 6.37122ZM31.6512 23.9576C32.49 24.8033 33.4 25.5752 34.3712 26.2648C34.6409 26.446 34.9935 26.446 35.2632 26.2648C36.2289 25.5788 37.1334 24.8103 37.9664 23.968C38.6363 24.2568 39.1049 24.8767 39.2 25.6C39.2 26.7352 37.3928 28 34.8 28C32.2072 28 30.4 26.7352 30.4 25.6C30.5003 24.871 30.975 24.2478 31.6512 23.9576ZM23.36 22.88C23.5111 23.0815 23.7482 23.2 24 23.2C24.2518 23.2 24.4889 23.0815 24.64 22.88L26.8 20H28.4104C29.0491 20.9764 29.759 21.9043 30.5344 22.776C29.5175 23.3652 28.8656 24.4267 28.8 25.6C28.8 27.84 31.4352 29.6 34.8 29.6C38.1648 29.6 40.8 27.84 40.8 25.6C40.7385 24.4321 40.0924 23.3739 39.0816 22.7856C39.8603 21.9098 40.5747 20.9788 41.2192 20H46.4V33.52C46.3328 33.5072 46.2624 33.5 46.1968 33.484C45.9329 33.4183 45.6782 33.3203 45.4384 33.192C45.2075 33.0661 44.9879 32.9202 44.7824 32.756C44.5579 32.5759 44.254 32.5303 43.9865 32.6365C43.719 32.7427 43.5292 32.9845 43.4894 33.2696C43.4497 33.5546 43.5662 33.8391 43.7944 34.0144C44.0733 34.2365 44.3712 34.4336 44.6848 34.6032C45.0408 34.7939 45.4192 34.9396 45.8112 35.0368C46.0054 35.0832 46.2019 35.1187 46.4 35.1432V46.4H41.984L39.024 42.7C38.8666 42.5194 38.6388 42.4158 38.3992 42.4158C38.1596 42.4158 37.9318 42.5194 37.7744 42.7L34.816 46.4H16.8V44C16.8 43.5582 16.4418 43.2 16 43.2C15.5582 43.2 15.2 43.5582 15.2 44V46.4H4.1808C3.4549 46.3963 2.76176 46.0974 2.2608 45.572C1.81684 45.1251 1.57764 44.5144 1.6 43.8848C1.65872 42.6032 2.71709 41.5957 4 41.6H10.4C11.2837 41.6 12 40.8837 12 40V32.08C12.0664 32.0928 12.1368 32.1 12.2016 32.116C12.4655 32.1815 12.7203 32.2796 12.96 32.408C13.1912 32.5339 13.411 32.6798 13.6168 32.844C13.8408 33.0297 14.148 33.0792 14.4189 32.9731C14.6899 32.8671 14.8819 32.6223 14.9204 32.3339C14.9588 32.0455 14.8377 31.759 14.604 31.5856C14.3251 31.3635 14.0272 31.1665 13.7136 30.9968C13.3579 30.8062 12.9798 30.6608 12.588 30.564C12.3943 30.5165 12.1979 30.4802 12 30.4552V20H21.2L23.36 22.88ZM2.2976 17.5056C2.74946 17.0546 3.36156 16.8009 4 16.8H4.8V19.2C4.8 19.6418 5.15817 20 5.6 20C6.04183 20 6.4 19.6418 6.4 19.2V16.8H10.4V40H8V37.6C8 37.1582 7.64183 36.8 7.2 36.8C6.75817 36.8 6.4 37.1582 6.4 37.6V40H4C3.13191 40.0047 2.28913 40.2929 1.6 40.8208V19.2C1.60016 18.5654 1.85086 17.9564 2.2976 17.5056Z" fill="white"/>
<path id="Shape_2" d="M34.7585 16C37.3521 16.0234 39.7034 14.4789 40.7122 12.0894C41.721 9.69978 41.1877 6.93764 39.3619 5.09529C37.5362 3.25294 34.779 2.69474 32.3804 3.68187C29.9818 4.669 28.4162 7.00623 28.4161 9.60001C28.4045 13.1169 31.2416 15.9797 34.7585 16ZM34.7585 4.80001C36.7049 4.77665 38.4728 5.9312 39.2339 7.72287C39.9951 9.51453 39.5987 11.5885 38.2306 12.9732C36.8624 14.358 34.7934 14.7793 32.9927 14.0399C31.192 13.3004 30.0162 11.5466 30.0161 9.60001C30.0032 6.96619 32.1247 4.81894 34.7585 4.80001Z" fill="white"/>
<path id="Shape_3" d="M15.3344 26.044C15.4522 26.2206 15.6352 26.3431 15.8433 26.3847C16.0514 26.4262 16.2675 26.3834 16.444 26.2656L17.804 25.3616L19.164 26.2656C19.4018 26.4243 19.7062 26.444 19.9624 26.3173C20.2187 26.1907 20.388 25.937 20.4064 25.6517C20.4249 25.3665 20.2898 25.0931 20.052 24.9344L19.252 24.4L20.052 23.8656C20.2898 23.707 20.4249 23.4336 20.4064 23.1483C20.388 22.8631 20.2187 22.6093 19.9624 22.4827C19.7062 22.3561 19.4018 22.3758 19.164 22.5344L17.804 23.4384L16.444 22.5344C16.0764 22.2892 15.5796 22.3884 15.3344 22.756C15.0892 23.1236 15.1884 23.6204 15.556 23.8656L16.356 24.4L15.556 24.9344C15.3795 25.0522 15.2569 25.2352 15.2154 25.4433C15.1738 25.6514 15.2166 25.8675 15.3344 26.044Z" fill="white"/>
<path id="Shape_4" d="M24.1496 42.8648C24.4062 43.224 24.9053 43.3074 25.2648 43.0512L27.6 41.3832L29.9352 43.0512C30.2948 43.3079 30.7945 43.2245 31.0512 42.8648C31.3079 42.5052 31.2245 42.0055 30.8648 41.7488L28.9768 40.4L30.8648 39.0512C31.2245 38.7945 31.3079 38.2949 31.0512 37.9352C30.7945 37.5756 30.2948 37.4921 29.9352 37.7488L27.6 39.4168L25.2648 37.7488C24.9052 37.4921 24.4055 37.5756 24.1488 37.9352C23.8921 38.2949 23.9756 38.7945 24.3352 39.0512L26.2232 40.4L24.3352 41.7488C23.9758 42.0058 23.8927 42.5054 24.1496 42.8648Z" fill="white"/>
<path id="Shape_5" d="M40 32C40.3375 31.9965 40.6742 32.0347 41.0023 32.1136C41.2665 32.1794 41.5214 32.2775 41.7616 32.4056C42.0141 32.5455 42.3225 32.5385 42.5684 32.3871C42.8143 32.2358 42.9596 31.9637 42.9486 31.6752C42.9376 31.3867 42.7719 31.1265 42.5152 30.9944C42.159 30.8036 41.7803 30.6582 41.388 30.5616C40.9337 30.4506 40.4675 30.3963 40 30.4C39.5581 30.4 39.2 30.7582 39.2 31.2C39.2 31.6418 39.5581 32 40 32Z" fill="white"/>
<path id="Shape_6" d="M34.9336 34.7C35.0644 34.7 35.1933 34.6678 35.3088 34.6064C35.6229 34.4365 35.9214 34.2392 36.2008 34.0168C36.4528 33.8192 36.6904 33.6088 36.9272 33.3984C37.1408 33.2088 37.3528 33.0192 37.5792 32.8384C37.8074 32.6631 37.9239 32.3786 37.8842 32.0936C37.8444 31.8085 37.6546 31.5667 37.3871 31.4605C37.1196 31.3543 36.8157 31.3999 36.5912 31.58C36.3392 31.7776 36.1016 31.988 35.8648 32.1984C35.6512 32.388 35.4392 32.5776 35.2136 32.7584C35.008 32.9226 34.7882 33.0683 34.5568 33.1936C34.2322 33.3661 34.067 33.7376 34.1562 34.0941C34.2454 34.4507 34.566 34.7006 34.9336 34.7Z" fill="white"/>
<path id="Shape_7" d="M30.2816 34.6056C30.6371 34.7965 31.0153 34.942 31.4071 35.0384C31.4704 35.0546 31.5355 35.0627 31.6007 35.0624C32.0042 35.0612 32.3436 34.7597 32.3924 34.3592C32.4412 33.9587 32.1841 33.5845 31.7928 33.4864C31.5289 33.4207 31.2741 33.3227 31.0343 33.1944C30.8035 33.0688 30.5842 32.9229 30.3791 32.7584C30.1547 32.5783 29.8507 32.5327 29.5832 32.6389C29.3157 32.7451 29.1259 32.9869 29.0862 33.272C29.0464 33.557 29.1629 33.8415 29.3911 34.0168C29.6697 34.2394 29.9677 34.4364 30.2816 34.6056Z" fill="white"/>
<path id="Shape_8" d="M25.6 32C25.9373 31.9965 26.2737 32.0346 26.6016 32.1136C26.8656 32.1791 27.1203 32.2772 27.36 32.4056C27.6126 32.5455 27.921 32.5384 28.1669 32.3871C28.4128 32.2358 28.5581 31.9637 28.5471 31.6752C28.536 31.3867 28.3704 31.1265 28.1136 30.9944C27.7579 30.8033 27.3794 30.6579 26.9872 30.5616C26.5332 30.4515 26.0673 30.3972 25.6 30.4C25.1582 30.4 24.8 30.7582 24.8 31.2C24.8 31.6418 25.1582 32 25.6 32Z" fill="white"/>
<path id="Shape_9" d="M21.3096 34.1872C21.4884 34.1876 21.6621 34.1276 21.8024 34.0168C22.0544 33.8192 22.292 33.6088 22.5288 33.3984C22.7424 33.2088 22.9544 33.0192 23.1808 32.8384C23.4091 32.6631 23.5255 32.3786 23.4858 32.0936C23.4461 31.8085 23.2563 31.5667 22.9888 31.4605C22.7213 31.3543 22.4173 31.3999 22.1928 31.58C21.9408 31.7776 21.7032 31.988 21.4664 32.1984C21.2528 32.388 21.0408 32.5776 20.8152 32.7584C20.5473 32.9692 20.4423 33.3266 20.5538 33.6488C20.6653 33.971 20.9687 34.1871 21.3096 34.1872Z" fill="white"/>
<path id="Shape_10" d="M18.4 33.6C18.0625 33.6035 17.7258 33.5654 17.3976 33.4864C17.134 33.4208 16.8795 33.3228 16.64 33.1944C16.3874 33.0545 16.0791 33.0616 15.8332 33.2129C15.5872 33.3642 15.4419 33.6363 15.453 33.9248C15.464 34.2133 15.6297 34.4735 15.8864 34.6056C16.2419 34.7966 16.6201 34.942 17.012 35.0384C17.4662 35.1494 17.9324 35.2037 18.4 35.2C18.8418 35.2 19.2 34.8418 19.2 34.4C19.2 33.9582 18.8418 33.6 18.4 33.6Z" fill="white"/>
</g>
</g>
</svg>
