<svg width="48" height="48" viewBox="0 0 48 48" fill="none" xmlns="http://www.w3.org/2000/svg">
<g clip-path="url(#clip0_31_179)">
<mask id="mask0_31_179" style="mask-type:luminance" maskUnits="userSpaceOnUse" x="0" y="0" width="48" height="48">
<path d="M0 3.8147e-06H48V48H0V3.8147e-06Z" fill="white"/>
</mask>
<g mask="url(#mask0_31_179)">
<path d="M0.703156 30.6573H47.2968" stroke="white" stroke-width="1.40625" stroke-miterlimit="10" stroke-linecap="round" stroke-linejoin="round"/>
<path d="M33.0834 20.9476C32.7923 19.1774 31.1213 17.9783 29.351 18.2693C27.5808 18.5603 26.3817 20.2313 26.6728 22.0016C26.3817 20.2313 24.7107 19.0323 22.9404 19.3233C21.1702 19.6144 19.971 21.2855 20.2621 23.0557C19.971 21.2855 18.3 20.0863 16.5298 20.3773C14.7595 20.6684 13.5604 22.3394 13.8514 24.1097C13.5604 22.3394 11.8894 21.1403 10.1191 21.4314C8.34895 21.7224 7.1498 23.3934 7.4408 25.1637C7.1498 23.3934 5.4788 22.1944 3.70851 22.4854C1.93823 22.7765 0.739172 24.4475 1.03027 26.2178L0.921515 26.2357C-0.538547 17.3558 5.47645 8.97356 14.3564 7.5135C23.2363 6.05353 31.6184 12.0685 33.0784 20.9484L33.0834 20.9476Z" stroke="white" stroke-width="1.40625" stroke-miterlimit="10" stroke-linecap="round" stroke-linejoin="round"/>
<path d="M16.473 20.3867L19.1901 36.9127" stroke="white" stroke-width="1.40625" stroke-miterlimit="10" stroke-linecap="round" stroke-linejoin="round"/>
<path d="M7.29372 17.2759C6.94628 19.5261 6.92856 22.0242 7.30085 24.617C7.36197 24.7921 7.40969 24.9744 7.44081 25.1637C7.14981 23.3934 8.34888 21.7224 10.1192 21.4313C11.8894 21.1403 13.5604 22.3394 13.8514 24.1097C13.5604 22.3394 14.7595 20.6684 16.5298 20.3774C18.3 20.0863 19.9711 21.2854 20.2622 23.0556C19.9711 21.2854 21.1702 19.6144 22.9404 19.3233C24.4965 19.0674 25.9754 19.9632 26.5083 21.3859C24.8989 12.8305 19.5467 6.66354 14.3625 7.51254C14.361 7.51282 14.3595 7.51301 14.358 7.51329C11.5555 7.97454 9.36297 10.3942 8.13156 13.882" stroke="white" stroke-width="1.40625" stroke-miterlimit="10" stroke-linecap="round" stroke-linejoin="round"/>
<path d="M14.4485 7.4996C14.4389 7.5011 14.4294 7.50241 14.4198 7.50391C12.6834 7.82088 12.42 15.0524 13.8134 23.7589C13.7227 22.1237 14.8771 20.6491 16.5298 20.3774C18.3 20.0863 19.971 21.2854 20.2621 23.0556C20.2437 22.9442 20.2314 22.8332 20.2247 22.7227C18.7592 14.0296 16.1961 7.25932 14.4485 7.4996Z" stroke="white" stroke-width="1.40625" stroke-miterlimit="10" stroke-linecap="round" stroke-linejoin="round"/>
<path d="M33.0834 20.9476C33.0718 20.8772 33.0572 20.8079 33.0414 20.7394C33.0538 20.809 33.067 20.8784 33.0784 20.9484L33.0834 20.9476Z" stroke="white" stroke-width="1.40625" stroke-miterlimit="10" stroke-linecap="round" stroke-linejoin="round"/>
<path d="M43.398 7.79268C43.398 9.5549 41.9695 10.9835 40.2073 10.9835C38.445 10.9835 37.0166 9.5549 37.0166 7.79268C37.0166 6.03046 38.445 4.6019 40.2073 4.6019C41.9695 4.6019 43.398 6.03046 43.398 7.79268Z" stroke="white" stroke-width="1.40625" stroke-miterlimit="10" stroke-linecap="round" stroke-linejoin="round"/>
<path d="M40.2073 0.703108V2.36792" stroke="white" stroke-width="1.40625" stroke-miterlimit="10" stroke-linecap="round" stroke-linejoin="round"/>
<path d="M40.2073 13.2175V14.8823" stroke="white" stroke-width="1.40625" stroke-miterlimit="10" stroke-linecap="round" stroke-linejoin="round"/>
<path d="M45.2204 2.77963L44.0432 3.95685" stroke="white" stroke-width="1.40625" stroke-miterlimit="10" stroke-linecap="round" stroke-linejoin="round"/>
<path d="M36.3714 11.6286L35.1942 12.8058" stroke="white" stroke-width="1.40625" stroke-miterlimit="10" stroke-linecap="round" stroke-linejoin="round"/>
<path d="M47.2969 7.79272H45.632" stroke="white" stroke-width="1.40625" stroke-miterlimit="10" stroke-linecap="round" stroke-linejoin="round"/>
<path d="M34.7825 7.79272H33.1177" stroke="white" stroke-width="1.40625" stroke-miterlimit="10" stroke-linecap="round" stroke-linejoin="round"/>
<path d="M45.2204 12.8058L44.0432 11.6286" stroke="white" stroke-width="1.40625" stroke-miterlimit="10" stroke-linecap="round" stroke-linejoin="round"/>
<path d="M36.3714 3.95685L35.1942 2.77963" stroke="white" stroke-width="1.40625" stroke-miterlimit="10" stroke-linecap="round" stroke-linejoin="round"/>
<path d="M3.21187 41.3103C4.11674 41.3103 4.11824 39.9041 3.21187 39.9041C2.30699 39.9041 2.30559 41.3103 3.21187 41.3103Z" fill="white"/>
<path d="M12.9203 45.2351C13.8251 45.2351 13.8266 43.8289 12.9203 43.8289C12.0155 43.8289 12.014 45.2351 12.9203 45.2351Z" fill="white"/>
<path d="M15.3665 39.9164C16.2713 39.9164 16.2728 38.5101 15.3665 38.5101C14.4616 38.5101 14.4601 39.9164 15.3665 39.9164Z" fill="white"/>
<path d="M34.0009 48C34.9058 48 34.9072 46.5938 34.0009 46.5938C33.096 46.5938 33.0945 48 34.0009 48Z" fill="white"/>
<path d="M42.3396 44.0898C43.2445 44.0898 43.246 42.6836 42.3396 42.6836C41.4348 42.6836 41.4333 44.0898 42.3396 44.0898Z" fill="white"/>
<path d="M27.2655 36.9127H32.6765" stroke="white" stroke-width="1.40625" stroke-miterlimit="10" stroke-linecap="round" stroke-linejoin="round"/>
<path d="M31.3046 34.0376H43.3981" stroke="white" stroke-width="1.40625" stroke-miterlimit="10" stroke-linecap="round" stroke-linejoin="round"/>
<path d="M38.2815 39.3505C40.8103 38.7315 44.1617 38.5537 47.2821 41.1725" stroke="white" stroke-width="1.40625" stroke-miterlimit="10" stroke-linecap="round" stroke-linejoin="round"/>
<path d="M0.693787 38.0859C3.53751 34.2124 8.99994 32.4938 13.5523 34.0401C18.9286 35.8664 22.7748 41.5963 28.4464 41.8761C30.3317 41.9691 32.1538 41.4254 33.9501 40.7902" stroke="white" stroke-width="1.40625" stroke-miterlimit="10" stroke-linecap="round" stroke-linejoin="round"/>
</g>
</g>
<defs>
<clipPath id="clip0_31_179">
<rect width="48" height="48" fill="white"/>
</clipPath>
</defs>
</svg>
